<?xml version='1.0' encoding='UTF-8' standalone='no'?>
<!DOCTYPE svg PUBLIC '-//W3C//DTD SVG 1.1//EN' 'http://www.w3.org/Graphics/SVG/1.1/DTD/svg11.dtd'>
<svg xml:space="preserve" viewBox="0 0 70 32" height="100%" xmlns:xlink="http://www.w3.org/1999/xlink" xmlns="http://www.w3.org/2000/svg" xmlns:serif="http://www.serif.com/" style="fill-rule:evenodd;clip-rule:evenodd;stroke-linejoin:round;stroke-miterlimit:2;" width="100%" version="1.1">
 <g id="Toggle_-_Building">
  <path id="Rectangle_605" style="fill:#2699fb;" d="M70,2l0,28c0,1.104 -0.896,2 -2,2l-66,0c-1.104,0 -2,-0.896 -2,-2l0,-28c0,-1.104 0.896,-2 2,-2l66,0c1.104,0 2,0.896 2,2Z"/>
  <g>
   <path style="fill:#fff;fill-rule:nonzero;" d="M22.242,5.153l-7.639,0c-4.003,0 -7.257,3.254 -7.257,7.257l0,14.514c0,0.21 0.172,0.382 0.382,0.382l21.389,0c0.21,0 0.382,-0.172 0.382,-0.382l0,-14.514c0,-4.003 -3.254,-7.257 -7.257,-7.257l0,0Zm-3.437,0.764l3.437,0c1.654,0 3.159,0.627 4.304,1.646l-1.077,1.081c-0.871,-0.745 -1.998,-1.199 -3.227,-1.199l-3.437,0l0,-1.528Zm2.292,8.403l0,4.583l-5.347,0l0,-4.583c0,-0.63 0.516,-1.146 1.146,-1.146l3.056,0c0.63,0 1.146,0.516 1.146,1.146Zm-6.493,-8.403l3.437,0l0,1.528l-3.437,0c-1.23,0 -2.357,0.455 -3.227,1.199l-1.077,-1.081c1.146,-1.02 2.651,-1.646 4.304,-1.646Zm-4.965,20.625l-1.528,0l0,-5.347l1.528,0l0,5.347Zm0,-6.111l-1.528,0l0,-5.347l1.528,0l0,5.347Zm0,-6.111l-1.528,0l0,-1.91c0,-1.654 0.627,-3.159 1.646,-4.304l1.081,1.077c-0.745,0.871 -1.199,1.998 -1.199,3.227l0,1.91Zm1.115,12.222l4.813,-6.875l5.714,0l4.812,6.875l-15.339,0Zm17.982,0l-1.528,0l0,-5.347l1.528,0l0,5.347Zm0,-6.111l-1.528,0l0,-5.347l1.528,0l0,5.347Zm0,-6.111l-1.528,0l0,-1.91c0,-1.23 -0.455,-2.357 -1.199,-3.227l1.081,-1.077c1.02,1.146 1.646,2.651 1.646,4.304l0,1.91Z"/>
  </g>
  <g>
   <path style="fill:#fff;fill-rule:nonzero;" d="M18.423,21.958c-0.21,0 -0.382,0.172 -0.382,0.382l0,0.382c0,0.21 0.172,0.382 0.382,0.382c0.21,0 0.382,-0.172 0.382,-0.382l0,-0.382c0,-0.21 -0.172,-0.382 -0.382,-0.382Z"/>
  </g>
  <g>
   <path style="fill:#fff;fill-rule:nonzero;" d="M18.423,23.868c-0.21,0 -0.382,0.172 -0.382,0.382l0,1.146c0,0.21 0.172,0.382 0.382,0.382c0.21,0 0.382,-0.172 0.382,-0.382l0,-1.146c0,-0.21 -0.172,-0.382 -0.382,-0.382Z"/>
  </g>
  <g>
   <path style="fill:#fff;fill-rule:nonzero;" d="M18.805,20.813c0,0.509 -0.764,0.509 -0.764,0c0,-0.509 0.764,-0.509 0.764,0"/>
  </g>
  <g id="Building">
   <path id="Rectangle_607" style="fill:#fff;" d="M66,5l0,23c0,1.104 -0.896,2 -2,2l-23,0c-1.104,0 -2,-0.896 -2,-2l0,-23c0,-1.104 0.896,-2 2,-2l23,0c1.104,0 2,0.896 2,2Z"/>
   <g id="Building-2">
    <path id="Path_557" style="fill-rule:nonzero;" d="M60.57,26.364c-0,0 -0.603,0 -0.603,0l0,-11.521c0,-0 0,-0.001 0,-0.001c0,-0.355 -0.293,-0.648 -0.648,-0.648c-0,0 -1.531,0 -1.531,0l0,-8.045c0,-0 0,-0.001 0,-0.001c0,-0.355 -0.293,-0.648 -0.648,-0.648c-0,0 -0.001,0 -0.001,0l-4.683,0c-0,-0 -0.001,-0 -0.001,-0c-0.355,0 -0.648,0.293 -0.648,0.648c0,0 0,0.001 0,0.001l0,20.192l-0.788,0l0,-17.781c0,-0.001 0,-0.003 0,-0.004c0,-0.302 -0.248,-0.55 -0.55,-0.55c-0.051,0 -0.101,0.007 -0.15,0.021l-4.891,1.414c-0.235,0.069 -0.397,0.288 -0.394,0.533l0,16.39c0,0 -0.601,-0 -0.601,-0c-0.114,0 -0.208,0.094 -0.208,0.208l0,0.721c0,0.114 0.094,0.208 0.208,0.208c0,0 0.001,-0 0.001,-0l16.135,0c0,0 0.001,0 0.001,0c0.114,0 0.208,-0.094 0.208,-0.208l0,-0.721c0,-0.114 -0.094,-0.208 -0.208,-0.208Zm-14.168,-15.323c-0,-0.002 -0,-0.004 -0,-0.006c0,-0.06 0.05,-0.11 0.11,-0.11c0.002,0 0.004,0 0.006,0l3.037,0c0.002,-0 0.004,-0 0.006,-0c0.06,0 0.11,0.05 0.11,0.11c0,0.002 -0,0.004 -0,0.006l-0,0.6c0,0.002 0,0.004 0,0.006c0,0.06 -0.05,0.11 -0.11,0.11c-0.002,0 -0.004,-0 -0.006,-0l-3.06,0c-0.002,0 -0.004,0 -0.006,0c-0.06,0 -0.11,-0.05 -0.11,-0.11c0,-0.002 0,-0.004 0,-0.006l0,-0.6l0.023,0Zm0,1.9c-0,-0.002 -0,-0.004 -0,-0.006c0,-0.06 0.05,-0.11 0.11,-0.11c0.002,0 0.004,0 0.006,0l3.037,0c0.002,-0 0.004,-0 0.006,-0c0.06,0 0.11,0.05 0.11,0.11c0,0.002 -0,0.004 -0,0.006l-0,0.6c0,0.002 0,0.004 0,0.006c0,0.06 -0.05,0.11 -0.11,0.11c-0.002,0 -0.004,-0 -0.006,-0l-3.06,0c-0.002,0 -0.004,0 -0.006,0c-0.06,0 -0.11,-0.05 -0.11,-0.11c0,-0.002 0,-0.004 0,-0.006l0,-0.6l0.023,0Zm0,1.9c-0,-0.002 -0,-0.004 -0,-0.006c0,-0.06 0.05,-0.11 0.11,-0.11c0.002,0 0.004,0 0.006,0l3.037,0c0.002,-0 0.004,-0 0.006,-0c0.06,0 0.11,0.05 0.11,0.11c0,0.002 -0,0.004 -0,0.006l-0,0.6c0,0.002 0,0.004 0,0.006c0,0.06 -0.05,0.11 -0.11,0.11c-0.002,0 -0.004,-0 -0.006,-0l-3.06,0c-0.002,0 -0.004,0 -0.006,0c-0.06,0 -0.11,-0.05 -0.11,-0.11c0,-0.002 0,-0.004 0,-0.006l0,-0.6l0.023,0Zm0,1.9c-0,-0.002 -0,-0.004 -0,-0.006c0,-0.06 0.05,-0.11 0.11,-0.11c0.002,0 0.004,0 0.006,0l3.037,0c0.002,-0 0.004,-0 0.006,-0c0.06,0 0.11,0.05 0.11,0.11c0,0.002 -0,0.004 -0,0.006l-0,0.6c0,0.002 0,0.004 0,0.006c0,0.06 -0.05,0.11 -0.11,0.11c-0.002,0 -0.004,-0 -0.006,-0l-3.06,0c-0.002,0 -0.004,0 -0.006,0c-0.06,0 -0.11,-0.05 -0.11,-0.11c0,-0.002 0,-0.004 0,-0.006l0,-0.6l0.023,0Zm0,1.9c-0,-0.002 -0,-0.004 -0,-0.006c0,-0.06 0.05,-0.11 0.11,-0.11c0.002,0 0.004,0 0.006,0l3.037,0c0.002,-0 0.004,-0 0.006,-0c0.06,0 0.11,0.05 0.11,0.11c0,0.002 -0,0.004 -0,0.006l-0,0.6c0,0.002 0,0.004 0,0.006c0,0.06 -0.05,0.11 -0.11,0.11c-0.002,0 -0.004,-0 -0.006,-0l-3.06,0c-0.002,0 -0.004,0 -0.006,0c-0.06,0 -0.11,-0.05 -0.11,-0.11c0,-0.002 0,-0.004 0,-0.006l0,-0.6l0.023,0Zm0,1.924c-0,-0.002 -0,-0.004 -0,-0.006c0,-0.06 0.05,-0.11 0.11,-0.11c0.002,0 0.004,0 0.006,0l3.037,0c0.002,-0 0.004,-0 0.006,-0c0.06,0 0.11,0.05 0.11,0.11c0,0.002 -0,0.004 -0,0.006l-0,0.58c0,0.002 0,0.004 0,0.006c0,0.06 -0.05,0.11 -0.11,0.11c-0.002,0 -0.004,-0 -0.006,-0l-3.06,0c-0.002,0 -0.004,0 -0.006,0c-0.06,0 -0.11,-0.05 -0.11,-0.11c0,-0.002 0,-0.004 0,-0.006l0,-0.58l0.023,0Zm0,1.9c-0,-0.002 -0,-0.004 -0,-0.006c0,-0.06 0.05,-0.11 0.11,-0.11c0.002,0 0.004,0 0.006,0l3.037,0c0.002,-0 0.004,-0 0.006,-0c0.06,0 0.11,0.05 0.11,0.11c0,0.002 -0,0.004 -0,0.006l-0,0.6c0,0.002 0,0.004 0,0.006c0,0.06 -0.05,0.11 -0.11,0.11c-0.002,0 -0.004,-0 -0.006,-0l-3.06,0c-0.002,0 -0.004,0 -0.006,0c-0.06,0 -0.11,-0.05 -0.11,-0.11c0,-0.002 0,-0.004 0,-0.006l0,-0.6l0.023,0Zm0,1.9c-0,-0.002 -0,-0.004 -0,-0.006c0,-0.06 0.05,-0.11 0.11,-0.11c0.002,0 0.004,0 0.006,0l3.037,0c0.002,-0 0.004,-0 0.006,-0c0.06,0 0.11,0.05 0.11,0.11c0,0.002 -0,0.004 -0,0.006l-0,0.6c0,0.002 0,0.004 0,0.006c0,0.06 -0.05,0.11 -0.11,0.11c-0.002,0 -0.004,-0 -0.006,-0l-3.06,0c-0.002,0 -0.004,0 -0.006,0c-0.06,0 -0.11,-0.05 -0.11,-0.11c0,-0.002 0,-0.004 0,-0.006l0,-0.6l0.023,0Zm11.1,-7.95l0,-0.651c0,-0.114 0.094,-0.208 0.208,-0.208l0.651,0c0.114,0 0.208,0.094 0.208,0.208l0,0.651c0,0.114 -0.094,0.208 -0.208,0.208l-0.651,0c-0.114,0 -0.208,-0.094 -0.208,-0.208Zm0,2.186l0,-0.658c0,-0.114 0.094,-0.208 0.208,-0.208l0.651,0c0.114,0 0.208,0.094 0.208,0.208l0,0.658c0,0.114 -0.094,0.208 -0.208,0.208l-0.651,0c-0.114,0 -0.208,-0.094 -0.208,-0.208Zm0,2.172l0,-0.651c0,-0.114 0.094,-0.208 0.208,-0.208l0.651,0c0.114,0 0.208,0.094 0.208,0.208l0,0.651c0,0.114 -0.094,0.208 -0.208,0.208l-0.651,0c-0.114,0 -0.208,-0.094 -0.208,-0.208Zm0,2.179l0,-0.651c0,-0.114 0.094,-0.208 0.208,-0.208l0.651,0c0.114,0 0.208,0.094 0.208,0.208l0,0.651c0,0.114 -0.094,0.208 -0.208,0.208l-0.651,0c-0.114,0 -0.208,-0.094 -0.208,-0.208Zm-0.209,1.297c0,-0 0.001,-0 0.001,-0c0.114,0 0.208,0.094 0.208,0.208c0,0 -0,0.001 -0,0.001l0,1.878l-1.414,0l0,-2.11l1.205,0l-0,0.023Zm-1.942,-16.523l0,-0.651c0,-0.114 0.094,-0.208 0.208,-0.208l0.651,0c0.114,0 0.208,0.094 0.208,0.208l0,0.651c0,0.114 -0.094,0.208 -0.208,0.208l-0.651,0c-0.114,0 -0.208,-0.094 -0.208,-0.208Zm0,2.175l0,-0.647c0,-0.114 0.094,-0.208 0.208,-0.208l0.651,0c0.114,0 0.208,0.094 0.208,0.208l0,0.647c0,0.114 -0.094,0.208 -0.208,0.208l-0.651,0c-0.114,0 -0.208,-0.094 -0.208,-0.208Zm0,2.183l0,-0.651c0,-0.114 0.094,-0.208 0.208,-0.208l0.651,0c0.114,0 0.208,0.094 0.208,0.208l0,0.651c0,0.114 -0.094,0.208 -0.208,0.208l-0.651,0c-0.114,0 -0.208,-0.094 -0.208,-0.208Zm0,2.179l0,-0.651c0,-0.114 0.094,-0.208 0.208,-0.208l0.651,0c0.114,0 0.208,0.094 0.208,0.208l0,0.651c0,0.114 -0.094,0.208 -0.208,0.208l-0.651,0c-0.114,0 -0.208,-0.094 -0.208,-0.208Zm0,2.156l0,-0.651c0,-0.114 0.094,-0.208 0.208,-0.208l0.651,0c0.114,0 0.208,0.094 0.208,0.208l0,0.651c0,0.114 -0.094,0.208 -0.208,0.208l-0.651,0c-0.114,0 -0.208,-0.094 -0.208,-0.208Zm0,2.182l0,-0.654c0,-0.114 0.094,-0.208 0.208,-0.208l0.651,0c0.114,0 0.208,0.094 0.208,0.208l0,0.654c0,0.114 -0.094,0.208 -0.208,0.208l-0.651,0c-0.114,0 -0.208,-0.094 -0.208,-0.208Zm0,2.176l0,-0.651c0,-0.114 0.094,-0.208 0.208,-0.208l0.651,0c0.114,0 0.208,0.094 0.208,0.208l0,0.651c0,0.114 -0.094,0.208 -0.208,0.208l-0.651,0c-0.114,0 -0.208,-0.094 -0.208,-0.208Zm0,2.179l0,-0.651c0,-0.114 0.094,-0.208 0.208,-0.208l0.651,0c0.114,0 0.208,0.094 0.208,0.208l0,0.651c0,0.114 -0.094,0.208 -0.208,0.208l-0.651,0c-0.114,0 -0.208,-0.094 -0.208,-0.208Zm-2.179,-15.231l0,-0.651c0,-0.114 0.094,-0.208 0.208,-0.208l0.651,0c0.114,0 0.208,0.094 0.208,0.208l0,0.651c0,0.114 -0.094,0.208 -0.208,0.208l-0.651,0c-0.114,0 -0.208,-0.094 -0.208,-0.208Zm0,2.176l0,-0.648c0,-0.114 0.094,-0.208 0.208,-0.208l0.651,0c0.114,0 0.208,0.094 0.208,0.208l0,0.648c0,0.114 -0.094,0.208 -0.208,0.208l-0.651,0c-0.114,0 -0.208,-0.094 -0.208,-0.208Zm0,2.182l0,-0.651c0,-0.114 0.094,-0.208 0.208,-0.208l0.651,0c0.114,0 0.208,0.094 0.208,0.208l0,0.651c0,0.114 -0.094,0.208 -0.208,0.208l-0.651,0c-0.114,0 -0.208,-0.094 -0.208,-0.208Zm0,2.179l0,-0.651c0,-0.114 0.094,-0.208 0.208,-0.208l0.651,0c0.114,0 0.208,0.094 0.208,0.208l0,0.651c0,0.114 -0.094,0.208 -0.208,0.208l-0.651,0c-0.114,0 -0.208,-0.094 -0.208,-0.208Zm0,2.156l0,-0.651c0,-0.114 0.094,-0.208 0.208,-0.208l0.651,0c0.114,0 0.208,0.094 0.208,0.208l0,0.651c0,0.114 -0.094,0.208 -0.208,0.208l-0.651,0c-0.114,0 -0.208,-0.094 -0.208,-0.208Zm0,2.183l0,-0.655c0,-0.114 0.094,-0.208 0.208,-0.208l0.651,0c0.114,0 0.208,0.094 0.208,0.208l0,0.655c0,0.114 -0.094,0.208 -0.208,0.208l-0.651,0c-0.114,0 -0.208,-0.094 -0.208,-0.208Zm0,2.175l0,-0.651c0,-0.114 0.094,-0.208 0.208,-0.208l0.651,0c0.114,0 0.208,0.094 0.208,0.208l0,0.651c0,0.114 -0.094,0.208 -0.208,0.208l-0.651,0c-0.114,0 -0.208,-0.094 -0.208,-0.208Zm0,2.179l0,-0.651c0,-0.114 0.094,-0.208 0.208,-0.208l0.651,0c0.114,0 0.208,0.094 0.208,0.208l0,0.651c0,0.114 -0.094,0.208 -0.208,0.208l-0.651,0c-0.114,0 -0.208,-0.094 -0.208,-0.208Zm1.09,1.529c-0,-0 -0,-0.001 -0,-0.001c0,-0.114 0.094,-0.208 0.208,-0.208c0,0 0.001,0 0.001,0l1.206,0l0,2.11l-1.416,0l0.001,-1.901Z"/>
   </g>
  </g>
 </g>
</svg>
